<?xml version="1.0" encoding="utf-8"?>
<!-- Generator: Adobe Illustrator 16.0.0, SVG Export Plug-In . SVG Version: 6.00 Build 0)  -->
<!DOCTYPE svg PUBLIC "-//W3C//DTD SVG 1.1//EN" "http://www.w3.org/Graphics/SVG/1.1/DTD/svg11.dtd">
<svg version="1.1" id="Layer_1" xmlns="http://www.w3.org/2000/svg" xmlns:xlink="http://www.w3.org/1999/xlink" x="0px" y="0px"
	 width="960px" height="560px" viewBox="0 0 960 560" enable-background="new 0 0 960 560" xml:space="preserve">
<g>
	<path fill="#FFFFFF" stroke="#000000" stroke-width="2" stroke-miterlimit="10" d="M1566.434,1205.82
		c-1352.121,0-2704.242,0-4056.551,0c0-675.924,0-1351.865,0-2028.078c1352.059,0,2704.305,0,4056.551,0
		C1566.434-146.332,1566.434,529.736,1566.434,1205.82z M-510.444,416.314c-3.688-2.783-6.433-5.232-9.521-7.123
		c-17.788-10.891-29.389-26.57-35.842-46.18c-2.739-8.322-4.735-16.893-7.581-25.174c-2.113-6.152-1.866-10.625,4.098-14.854
		c5.673-4.023,4.991-10.025-0.563-14.313c-1.323-1.022-2.853-1.826-4.382-2.521c-4.735-2.154-7.065-5.798-7.888-10.924
		c-1.441-8.99-3.68-17.863-4.885-26.879c-2.011-15.035-4.227-30.105-4.962-45.229c-0.853-17.534-0.755-35.167,0.018-52.709
		c0.426-9.668,2.624-19.35,4.895-28.815c1.563-6.516,5.027-8.325,11.377-6.886c12.176,2.761,24.301,5.785,36.358,9.029
		c6.419,1.727,8.032,4.532,7.566,11.11c-3.334,46.965-1.132,93.895,4.214,140.474c3.021,26.324,10.679,52.162,17.017,78.031
		c1.809,7.381,5.93,14.316,9.743,21.029c1.708,3.01,4.9,5.764,8.069,7.232c6.604,3.061,11.561-1.107,10.145-8.248
		c-0.783-3.945-2.479-7.699-3.588-11.59c-4.621-16.221-10.469-32.229-13.453-48.75c-4.607-25.506-7.937-51.3-10.521-77.1
		c-2.938-29.322-0.428-58.69,2.083-87.968c0.28-3.266,1.604-6.551,2.982-9.581c1.271-2.789,3.641-5.934,6.926-4.103
		c2.108,1.175,3.408,4.562,4.137,7.214c0.588,2.143-0.302,4.665-0.395,7.023c-0.466,11.793-1.28,23.588-1.228,35.379
		c0.082,18.554,0.745,37.104,1.191,55.654c0.114,4.778-0.206,9.052-3.833,13.084c-4.979,5.533-4.705,7.626,1.266,12.426
		c4.796,3.854,7.807,8.381,8.57,14.327c2.44,18.991,8.732,36.485,17.929,53.362c8.334,15.297,19.1,27.482,33.99,36.457
		c35.99,21.693,80.818-0.652,86.824-35.361c0.658-3.797,2.41-7.402,3.686-11.186c6.023,1.938,6.689,6.66,8.436,10.543
		c3.998,8.9,6.059,10.137,15.592,8.508c3.314-0.564,6.635-1.395,9.783-2.563c6.459-2.396,8.248-6.293,5.693-12.754
		c-4.83-12.223-9.963-24.328-14.855-36.528c-4.266-10.639-10.307-21.03-12.078-32.091c-2.379-14.835-3.557-30.53-1.354-45.274
		c3.123-20.906,9.289-41.428,15.111-61.843c5.121-17.956,7.027-18.509,25.197-13.729c6.826,1.797,9.223,4.037,9.465,11.215
		c0.309,9.096,0.295,18.271-0.539,27.323c-1.547,16.756-4.592,33.387-2.098,50.337c0.635,4.297,0.33,8.795-0.029,13.16
		c-0.521,6.311-3.252,8.971-9.658,9.484c-4.369,0.35-8.787,0.052-13.176,0.22c-4.639,0.177-8.789,1.553-10.441,6.433
		c-1.359,4.023,0.912,8.772,6.414,11.379c4.762,2.255,10.055,3.869,15.273,4.579c10.182,1.384,11.436,2.2,12.525,12.01
		c0.334,3.012,1.119,6.005,1.15,9.012c0.223,21.069,4.475,41.624,9.146,61.95c2.645,11.506,1.311,19.688-9.023,25.986
		c-3.395,2.07-6.617,4.865-9.025,8.012c-5.158,6.74-2.777,13.021,5.424,15.105c2.904,0.74,5.998,1.277,8.967,1.131
		c16.736-0.83,32.865,0.273,47.85,9.332c5.076,3.07,12.131,3.672,17.004-1.303c3.93-4.01,8.33-4.307,12.998-3.773
		c10.715,1.227,21.393,2.793,32.064,4.359c12.322,1.809,24.578,4.152,36.941,5.568c17.438,1.994,34.9,3.145,51.025,11.416
		c5.709,2.93,13.045,3.67,18.129-1.178c5.252-5.004,3.834-11.926,1.24-18.068c-4.07-9.639-8.904-18.971-12.643-28.729
		c-9.326-24.33-17.66-48.959-16.947-75.551c0.117-4.363,0.895-8.705,1.211-13.066c0.23-3.153-0.115-6.299-3.662-7.532
		c-3.729-1.297-6.967,0.209-8.637,3.431c-1.992,3.844-4.336,8.103-4.424,12.227c-0.256,12.111-0.797,24.473,1.229,36.314
		c2.896,16.924,8.055,33.453,12.09,50.188c2.279,9.459,1.307,11.07-8.418,10.639c-11.082-0.494-22.113-2.125-33.172-3.193
		c-30.867-2.986-61.74-5.918-92.604-8.936c-3.348-0.328-6.701-0.883-9.965-1.68c-5.123-1.254-8.59-5.029-9.045-9.848
		c-0.344-3.631,1.006-8.102,3.105-11.172c13.904-20.344,27.787-40.727,42.525-60.465c12.301-16.474,24.951-32.834,38.938-47.856
		c12.576-13.507,27.293-25.008,40.771-37.705c2.127-2.005,4.164-5.983,3.602-8.45c-0.588-2.59-4.006-5.487-6.799-6.424
		c-5.566-1.863-11.318-1.3-16.389,2.439c-2.979,2.198-6.027,4.348-9.242,6.17c-30.857,17.491-64.682,26.971-98.582,36.145
		c-9.645,2.611-13.42-0.408-13.617-10.213c-0.494-24.652-0.072-49.25,4.244-73.651c2.801-15.84,3.059-17.618,18.848-16.39
		c4.332,0.337,9.518,1.943,13.01-2.604c-0.02-4.259-3.008-5.147-6.027-5.825c-3.615-0.813-7.309-1.286-10.904-2.162
		c-9.939-2.42-12.162-5.193-12.379-15.486c-0.137-6.42,0.168-12.854-0.119-19.264c-0.805-18.083-12.154-27.226-30.361-25.309
		c-16.326,1.717-28.705,9.063-36.641,23.604c-1.293,2.365-2.828,4.609-4.375,6.822c-4.551,6.508-6.752,7.317-14.553,5.509
		c-24.961-5.786-49.838-11.962-74.92-17.161c-9.307-1.928-14.078-6.808-16.523-15.422c-1.373-4.84-3.293-9.587-5.498-14.115
		c-5.525-11.347-12.076-12.876-24.309-8.994c-5.83,1.853-8.732,7.099-11.396,12.299c-4.312,8.413-4.987,8.496-14.169,5.854
		c-33.695-9.699-67.375-19.46-101.156-28.852c-31.853-8.855-63.739-17.618-95.772-25.788c-32.675-8.335-65.527-15.98-98.357-23.687
		c-3.804-0.894-8.302-1.228-11.862-0.014c-2.998,1.021-6.354,4.275-7.293,7.254c-1.273,4.032,2.579,6.744,6.072,8.182
		c3.399,1.398,7.125,2.021,10.727,2.905c38.657,9.495,77.434,18.53,115.938,28.608c27.733,7.259,55.053,16.086,82.658,23.861
		c18.176,5.12,36.535,9.592,54.797,14.406c3.257,0.859,6.519,1.791,9.646,3.02c3.995,1.569,5.502,4.215,4.176,8.805
		c-2.758,9.559-6.354,12.295-16.319,9.928c-29.533-7.011-58.961-14.476-88.49-21.504c-21.679-5.158-43.061-11.154-64.073-18.671
		c-5.695-2.037-12.748-1.533-18.946-0.621c-9.563,1.407-9.662,2.106-14.739-5.381c-4.134-6.094-9.222-10.123-16.854-8.575
		c-8.323,1.688-15.435,5.47-17.781,14.523c-1.091,4.214-2.025,8.602-2.089,12.924c-0.251,16.873-0.037,33.754-0.201,50.629
		c-0.043,4.488,1.539,9.432-3.153,14.363c-2.419-1.787-4.853-3.286-6.933-5.174c-7.716-7.004-16.589-9.613-27.016-8.766
		c-13.827,1.124-24.275,8.186-32.734,18.183c-17.389,20.548-21.422,45.668-20.904,71.271c0.366,18.098,3.938,36.129,6.024,54.196
		c0.205,1.779,0.027,3.604,0.027,8.105c-5.959-5.33-10.074-9.077-14.264-12.736c-3.031-2.647-5.877-5.683-9.319-7.644
		c-4.878-2.78-13.89-0.162-17.342,4.438c-4.082,5.438,0.336,8.761,3.333,12.189c14.881,17.021,29.782,34.028,44.855,50.878
		c8.775,9.809,17.769,19.43,26.894,28.916c6.06,6.299,9.118,6.629,17.084,2.973c1.841-0.846,3.695-1.701,5.424-2.748
		c5.463-3.301,6.913-7.109,4.127-12.736c-2.084-4.209-4.979-8.02-7.558-11.979c-14.229-21.84-27.483-43.961-31.985-70.403
		c-3.675-21.577-3.476-43.078-0.788-64.519c1.197-9.544,4.622-19.034,8.469-27.929c2.124-4.909,6.654-9.301,11.104-12.554
		c6.104-4.463,10.64-3,13.733,4.027c4.621,10.495,9.067,21.123,12.659,32.002c9.198,27.871,17.775,55.948,26.88,83.85
		c1.492,4.574,1.288,8.242-0.911,12.497c-3.473,6.717-2.624,9.848,4.41,12.724c6.382,2.609,9.597,6.996,11.418,13.127
		c1.442,4.855,2.938,9.695,4.565,14.49c6.392,18.842,12.747,37.695,19.352,56.461c1.559,4.43,3.741,8.719,6.195,12.73
		c1.72,2.811,4.084,5.445,6.706,7.441c4.467,3.404,13.19,3.4,16.137,0.293c4.449-4.695,0.591-8.588-1.339-12.795
		c-6.197-13.502-12.375-27.021-18.155-40.705c-1.537-3.641-4.111-7.814-0.378-12.973c2.187,2.355,4.033,4.123,5.619,6.098
		c4.434,5.525,8.421,11.451,13.224,16.627c4.79,5.16,9.628,11.088,15.721,14.066c15.058,7.357,29.981,15.238,47.407,16.717
		c15.081,1.277,29.687,1.922,43.283-6.057c7.341-4.311,13.443-3.297,20.257,2.211c6.168,4.986,13.672,8.6,21.06,11.693
		C-521.631,421.82-515.874,422.846-510.444,416.314z"/>
	<path fill-rule="evenodd" clip-rule="evenodd" fill="#697891" stroke="#2B3444" stroke-width="3" d="M436.003,452.717
		c-5.43,6.531-11.188,5.506-15.88,3.541c-7.388-3.094-14.892-6.709-21.06-11.693c-6.814-5.508-12.916-6.521-20.258-2.213
		c-13.596,7.98-28.202,7.336-43.283,6.057c-17.426-1.477-32.349-9.359-47.406-16.715c-6.094-2.979-10.932-8.906-15.722-14.068
		c-4.802-5.174-8.79-11.1-13.224-16.625c-1.586-1.977-3.432-3.744-5.619-6.098c-3.732,5.158-1.158,9.332,0.379,12.973
		c5.781,13.684,11.958,27.201,18.155,40.703c1.931,4.207,5.788,8.1,1.339,12.795c-2.946,3.109-11.67,3.111-16.137-0.293
		c-2.622-1.996-4.986-4.629-6.706-7.441c-2.454-4.012-4.636-8.299-6.195-12.729c-6.604-18.766-12.96-37.621-19.352-56.461
		c-1.628-4.795-3.123-9.637-4.565-14.49c-1.82-6.131-5.035-10.518-11.418-13.129c-7.034-2.875-7.883-6.006-4.41-12.723
		c2.199-4.254,2.403-7.922,0.911-12.496c-9.104-27.903-17.683-55.98-26.88-83.851c-3.592-10.879-8.038-21.507-12.658-32.002
		c-3.094-7.028-7.629-8.49-13.733-4.027c-4.45,3.252-8.981,7.644-11.104,12.553c-3.848,8.895-7.272,18.385-8.469,27.929
		c-2.688,21.44-2.888,42.942,0.787,64.518c4.502,26.444,17.756,48.563,31.985,70.403c2.579,3.959,5.474,7.771,7.558,11.98
		c2.786,5.627,1.336,9.434-4.127,12.736c-1.729,1.045-3.583,1.9-5.424,2.746c-7.967,3.656-11.025,3.326-17.085-2.973
		c-9.125-9.484-18.119-19.105-26.894-28.916c-15.073-16.85-29.975-33.855-44.855-50.877c-2.997-3.428-7.415-6.752-3.334-12.189
		c3.453-4.601,12.465-7.218,17.343-4.438c3.442,1.961,6.288,4.997,9.319,7.646c4.19,3.658,8.305,7.406,14.264,12.736
		c0-4.502,0.179-6.326-0.026-8.105c-2.087-18.069-5.658-36.101-6.024-54.198c-0.518-25.604,3.516-50.723,20.904-71.271
		c8.459-9.997,18.907-17.059,32.734-18.183c10.426-0.848,19.299,1.762,27.016,8.766c2.08,1.888,4.514,3.386,6.933,5.174
		c4.692-4.933,3.109-9.875,3.153-14.363c0.164-16.875-0.051-33.756,0.201-50.63c0.063-4.322,0.998-8.709,2.089-12.924
		c2.347-9.053,9.458-12.835,17.781-14.522c7.632-1.548,12.72,2.481,16.854,8.575c5.077,7.487,5.175,6.788,14.739,5.381
		c6.197-0.912,13.25-1.416,18.945,0.621c21.012,7.517,42.394,13.512,64.072,18.671c29.529,7.028,58.957,14.493,88.49,21.504
		c9.965,2.366,13.562-0.37,16.32-9.928c1.324-4.591-0.182-7.236-4.176-8.805c-3.129-1.229-6.391-2.161-9.648-3.02
		c-18.262-4.814-36.62-9.286-54.797-14.407c-27.604-7.774-54.924-16.602-82.657-23.861c-38.505-10.078-77.281-19.113-115.938-28.608
		c-3.602-0.884-7.328-1.506-10.727-2.905c-3.493-1.438-7.346-4.15-6.072-8.183c0.939-2.978,4.295-6.232,7.293-7.254
		c3.561-1.213,8.059-0.879,11.862,0.014c32.831,7.706,65.683,15.352,98.357,23.687c32.032,8.17,63.919,16.933,95.772,25.789
		c33.78,9.391,67.459,19.152,101.155,28.851c9.181,2.643,9.858,2.56,14.169-5.853c2.665-5.201,5.566-10.447,11.397-12.299
		c12.232-3.882,18.783-2.353,24.309,8.993c2.205,4.529,4.125,9.276,5.498,14.115c2.445,8.615,7.217,13.495,16.523,15.423
		c25.081,5.199,49.959,11.375,74.919,17.161c7.802,1.809,10.003,1,14.553-5.508c1.548-2.214,3.083-4.457,4.376-6.823
		c7.936-14.54,20.313-21.886,36.64-23.604c18.208-1.917,29.558,7.226,30.362,25.309c0.287,6.41-0.019,12.844,0.118,19.264
		c0.218,10.293,2.44,13.066,12.38,15.487c3.596,0.875,7.289,1.349,10.903,2.161c3.021,0.679,6.008,1.567,6.027,5.826
		c-3.492,4.548-8.677,2.941-13.01,2.604c-15.788-1.228-16.047,0.55-18.848,16.39c-4.315,24.401-4.737,48.999-4.243,73.652
		c0.196,9.805,3.973,12.824,13.617,10.213c33.9-9.174,67.725-18.654,98.581-36.145c3.215-1.822,6.265-3.972,9.242-6.17
		c5.07-3.739,10.823-4.303,16.389-2.439c2.793,0.937,6.211,3.834,6.8,6.424c0.563,2.467-1.475,6.445-3.602,8.45
		c-13.479,12.697-28.195,24.199-40.771,37.705c-13.986,15.024-26.638,31.384-38.938,47.856
		c-14.738,19.738-28.622,40.123-42.526,60.467c-2.099,3.07-3.448,7.541-3.104,11.172c0.455,4.818,3.922,8.594,9.044,9.846
		c3.265,0.797,6.618,1.354,9.965,1.68c30.864,3.018,61.737,5.949,92.604,8.936c11.059,1.07,22.09,2.701,33.172,3.193
		c9.725,0.434,10.697-1.178,8.417-10.637c-4.035-16.736-9.192-33.266-12.089-50.188c-2.026-11.844-1.484-24.205-1.229-36.316
		c0.087-4.123,2.432-8.381,4.424-12.225c1.669-3.223,4.907-4.729,8.636-3.432c3.548,1.234,3.894,4.379,3.663,7.533
		c-0.317,4.361-1.094,8.703-1.211,13.064c-0.714,26.594,7.62,51.223,16.946,75.551c3.739,9.758,8.573,19.09,12.644,28.729
		c2.594,6.143,4.012,13.066-1.24,18.07c-5.084,4.846-12.421,4.105-18.129,1.178c-16.125-8.273-33.588-9.422-51.026-11.418
		c-12.363-1.416-24.619-3.758-36.94-5.566c-10.672-1.568-21.35-3.133-32.064-4.359c-4.669-0.535-9.069-0.238-12.998,3.771
		c-4.873,4.975-11.928,4.375-17.005,1.305c-14.984-9.061-31.113-10.162-47.849-9.332c-2.969,0.146-6.063-0.393-8.968-1.131
		c-8.201-2.086-10.581-8.365-5.423-15.105c2.407-3.146,5.631-5.943,9.025-8.012c10.334-6.299,11.668-14.48,9.023-25.988
		c-4.672-20.326-8.925-40.879-9.146-61.949c-0.031-3.006-0.816-6-1.15-9.012c-1.091-9.809-2.344-10.625-12.525-12.01
		c-5.22-0.709-10.512-2.324-15.274-4.578c-5.501-2.607-7.773-7.356-6.413-11.38c1.651-4.881,5.803-6.256,10.44-6.434
		c4.39-0.168,8.807,0.131,13.176-0.219c6.407-0.514,9.138-3.174,9.658-9.484c0.359-4.365,0.665-8.863,0.03-13.16
		c-2.495-16.951,0.551-33.582,2.098-50.337c0.834-9.053,0.847-18.227,0.539-27.323c-0.242-7.178-2.639-9.419-9.466-11.216
		c-18.169-4.78-20.076-4.227-25.196,13.729c-5.822,20.415-11.988,40.936-15.111,61.842c-2.203,14.744-1.025,30.439,1.353,45.275
		c1.772,11.062,7.813,21.452,12.079,32.091c4.893,12.201,10.024,24.305,14.855,36.529c2.554,6.459,0.766,10.357-5.693,12.752
		c-3.148,1.17-6.47,2-9.783,2.564c-9.534,1.627-11.594,0.391-15.592-8.508c-1.746-3.885-2.412-8.605-8.437-10.545
		c-1.274,3.783-3.026,7.391-3.685,11.186c-6.007,34.709-50.835,57.055-86.824,35.361c-14.891-8.975-25.656-21.16-33.991-36.455
		c-9.196-16.877-15.488-34.371-17.929-53.363c-0.764-5.945-3.774-10.473-8.57-14.326c-5.972-4.802-6.244-6.894-1.266-12.427
		c3.627-4.033,3.948-8.307,3.833-13.084c-0.445-18.55-1.109-37.101-1.191-55.655c-0.053-11.791,0.762-23.586,1.227-35.378
		c0.094-2.359,0.984-4.881,0.396-7.024c-0.728-2.652-2.028-6.04-4.137-7.214c-3.285-1.832-5.654,1.313-6.925,4.103
		c-1.38,3.03-2.703,6.315-2.983,9.581c-2.511,29.277-5.021,58.646-2.083,87.968c2.584,25.799,5.913,51.595,10.521,77.101
		c2.983,16.521,8.832,32.527,13.454,48.75c1.107,3.891,2.803,7.645,3.587,11.588c1.416,7.141-3.54,11.311-10.146,8.248
		c-3.168-1.469-6.359-4.221-8.068-7.23c-3.813-6.713-7.934-13.648-9.742-21.031c-6.338-25.867-13.997-51.705-17.018-78.029
		c-5.346-46.581-7.549-93.51-4.215-140.475c0.467-6.578-1.146-9.383-7.565-11.11c-12.058-3.244-24.183-6.269-36.358-9.029
		c-6.35-1.44-9.814,0.37-11.377,6.885c-2.271,9.466-4.469,19.147-4.896,28.815c-0.772,17.542-0.87,35.175-0.018,52.709
		c0.735,15.123,2.951,30.194,4.962,45.229c1.205,9.016,3.443,17.89,4.885,26.88c0.822,5.125,3.152,8.77,7.888,10.924
		c1.529,0.695,3.059,1.498,4.382,2.521c5.555,4.287,6.236,10.287,0.563,14.311c-5.964,4.23-6.211,8.703-4.098,14.855
		c2.846,8.281,4.841,16.852,7.581,25.174c6.453,19.609,18.054,35.289,35.842,46.178
		C429.569,447.482,432.315,449.934,436.003,452.717z M223.721,142.429c-0.969,0.305-1.937,0.61-2.905,0.915
		c-0.629,3.224-1.82,6.452-1.792,9.671c0.159,17.837,0.19,35.693,1.13,53.498c0.566,10.715,3.418,21.31,4.006,32.027
		c1.883,34.312,13.969,65.755,26.235,97.206c2.194,5.625,5.921,8.709,12.188,8.734c21.894,0.088,43.787,0.35,65.68,0.441
		c3.012,0.014,6.042-0.434,9.031-0.877c3.83-0.566,5.229-2.846,3.818-6.488c-0.6-1.541-1.594-2.947-2.514-4.346
		c-7.233-10.975-14.684-21.81-21.709-32.915c-31.021-49.042-60.436-99.022-87.682-150.271
		C227.755,147.294,225.565,144.953,223.721,142.429z M249.395,139.184c1.177,2.803,2.114,5.978,3.735,8.752
		c23.838,40.776,47.724,81.525,71.717,122.209c3.593,6.092,7.617,11.953,11.781,17.673c2.197,3.018,4.143,7.26,9.285,5.609
		c0-12.313,0.063-24.358-0.016-36.401c-0.115-17.51-0.58-35.02-0.417-52.526c0.103-11.103,1.31-22.192,1.569-33.299
		c0.171-7.276-1.692-9.519-8.654-11.673c-5.471-1.692-11.107-2.833-16.615-4.412c-19.77-5.671-39.499-11.484-59.285-17.099
		C258.484,136.881,254.2,134.627,249.395,139.184z M565.969,317.868c-1.227-5.156-1.566-8.131-2.629-10.82
		c-9.912-25.08-19.924-50.122-29.961-75.154c-3.136-7.819-6.332-15.618-9.696-23.34c-1.958-4.494-5.069-8.121-10.135-9.113
		c-6.938-1.358-13.91-2.66-20.928-3.477c-7.208-0.84-9.518,1.109-11.211,8.454c-0.45,1.954-0.682,3.989-0.75,5.997
		c-0.472,13.742-1.416,27.496-1.146,41.225c0.277,14.119,1.633,28.225,2.775,42.316c0.484,5.977,2.495,11.236,9.212,13.064
		c20.193,5.498,40.579,9.9,61.57,10.826C556.67,318.005,560.28,317.868,565.969,317.868z M608.568,373.215
		c-0.558-10.42-4.937-18.092-8.826-25.84c-0.917-1.824-3.434-3.518-5.498-3.971c-7.871-1.725-15.824-3.174-23.811-4.258
		c-22.357-3.033-44.748-5.824-67.124-8.727c-10.387-1.348-12.435,0.27-11.361,10.297c2.426,22.678,10.035,43.283,25.935,60.123
		c14.876,15.756,36.752,22.676,58.07,6.467c7.155-5.439,12.297-12.369,16.162-20.428
		C595.336,380.164,598.507,373.17,608.568,373.215z M280.856,363.393c1.145-0.059-7.13-0.121-10.105,0.031
		c-6.813,0.344-8.283,2.576-5.811,8.992c1.085,2.814,2.543,5.508,4.039,8.139c11.869,20.854,28.703,35.775,50.641,46.059
		c17.682,8.287,33.754,6.834,50.123-1.953c6.711-3.602,7.639-5.502,5.503-13.002c-3.226-11.332-6.735-22.58-10.235-33.83
		c-3.141-10.092-5.277-11.734-15.85-11.584c-5.7,0.082-11.415,1.326-17.081,1.08l-50.079-3.99 M595.979,251.714
		c1.017-0.151,2.034-0.303,3.052-0.455c1.152-4.468,2.413-8.909,3.437-13.406c3.209-14.101,6.021-28.302,9.59-42.31
		c2.379-9.335,1.399-11.796-8.425-14.041c-20.671-4.725-41.348-9.432-62.085-13.851c-2.656-0.565-7.174-0.331-8.195,1.243
		c-1.485,2.286-1.633,6.637-0.411,9.175c1.433,2.979,4.593,5.659,7.646,7.179c3.202,1.594,7.174,1.616,10.792,2.401
		c4.025,0.873,8.502,1.835,9.121,6.654c0.705,5.491-3.792,7.26-8.029,8.829c-1.572,0.582-3.346,1.009-4.562,2.052
		c-1.167,1-2.733,3.034-2.4,4.05c3.183,9.728,5.662,19.848,13.017,29.282c0.863-2.72,1.41-3.882,1.588-5.097
		c1.04-7.145,5.385-10.289,12.324-11.044c11.097-1.208,14.449,0.916,17.291,11.81c0.851,3.26,1.385,6.624,2.488,9.792
		C593.152,246.667,594.7,249.143,595.979,251.714z M770.427,307.729c-0.502-1.049-1.005-2.098-1.509-3.146
		c-3.396,0.793-6.865,1.357-10.176,2.418c-14.755,4.725-29.438,9.67-44.203,14.362c-4.806,1.527-9.823,2.373-14.666,3.799
		c-4.752,1.4-7.11,4.609-6.999,9.783c0.379,17.539,1.215,35.031,5.177,52.195c0.549,2.375,2.159,4.504,3.979,8.148
		C728.403,367.512,744.902,334.121,770.427,307.729z M675.005,164.578c-0.052,0-0.102,0-0.153,0c0-2.021,0.521-4.23-0.121-6.021
		c-0.965-2.684-2.291-6.618-4.294-7.209c-2.642-0.779-7.19,0.164-8.968,2.13c-4.454,4.928-8.023,10.719-11.52,16.428
		c-1.825,2.979-0.768,6.788,2.311,7.748c5.281,1.647,11.222,3.428,16.416,2.506c5.711-1.014,5.734-7.521,6.313-12.548
		C675.104,166.613,675.005,165.59,675.005,164.578z M505.338,179.921c6.894-0.119,9.014-1.748,9.119-5.407
		c0.24-8.318-8.003-16.339-16.316-15.875c-4.377,0.244-8.215,3.549-9.117,8.085c-0.886,4.45,0.287,8.247,4.81,9.894
		C498.21,178.213,502.807,179.212,505.338,179.921z"/>
	<path fill-rule="evenodd" clip-rule="evenodd" fill="#FFFFFF" d="M-739.727,197.764c1.845,2.523,4.034,4.865,5.487,7.596
		c27.247,51.248,56.661,101.229,87.683,150.271c7.025,11.105,14.475,21.939,21.708,32.914c0.921,1.398,1.915,2.805,2.514,4.346
		c1.411,3.643,0.012,5.922-3.817,6.488c-2.99,0.443-6.021,0.891-9.031,0.877c-21.893-0.092-43.787-0.354-65.68-0.441
		c-6.268-0.025-9.995-3.109-12.189-8.734c-12.267-31.449-24.353-62.893-26.235-97.205c-0.588-10.717-3.44-21.312-4.006-32.027
		c-0.94-17.805-0.971-35.661-1.13-53.498c-0.029-3.219,1.164-6.448,1.792-9.671C-741.664,198.374-740.695,198.068-739.727,197.764z"
		/>
	<path fill-rule="evenodd" clip-rule="evenodd" fill="#FFFFFF" d="M-714.053,194.519c4.806-4.557,9.09-2.303,13.101-1.166
		c19.786,5.615,39.515,11.427,59.284,17.099c5.508,1.58,11.145,2.72,16.615,4.412c6.962,2.154,8.826,4.397,8.655,11.673
		c-0.261,11.106-1.467,22.196-1.57,33.299c-0.163,17.506,0.302,35.017,0.417,52.526c0.079,12.044,0.016,24.089,0.016,36.401
		c-5.143,1.65-7.087-2.592-9.285-5.609c-4.165-5.721-8.188-11.582-11.782-17.674c-23.993-40.685-47.878-81.433-71.716-122.209
		C-711.938,200.496-712.875,197.322-714.053,194.519z"/>
	<path fill-rule="evenodd" clip-rule="evenodd" fill="#FFFFFF" d="M-397.479,373.203c-5.688,0-9.299,0.137-12.898-0.021
		c-20.991-0.926-41.377-5.328-61.57-10.826c-6.717-1.828-8.728-7.088-9.212-13.064c-1.143-14.092-2.499-28.197-2.776-42.316
		c-0.268-13.729,0.676-27.483,1.147-41.225c0.068-2.008,0.3-4.043,0.751-5.997c1.692-7.345,4.002-9.294,11.21-8.454
		c7.018,0.817,13.989,2.119,20.928,3.477c5.065,0.993,8.177,4.62,10.135,9.113c3.364,7.722,6.561,15.521,9.696,23.34
		c10.037,25.032,20.049,50.074,29.961,75.154C-399.045,365.072-398.705,368.047-397.479,373.203z"/>
	<path fill-rule="evenodd" clip-rule="evenodd" fill="#FFFFFF" d="M-354.879,428.549c-10.062-0.045-13.232,6.949-16.453,13.664
		c-3.865,8.059-9.007,14.988-16.162,20.428c-21.318,16.209-43.194,9.289-58.07-6.467c-15.899-16.84-23.509-37.445-25.935-60.123
		c-1.073-10.027,0.975-11.645,11.361-10.297c22.376,2.902,44.767,5.693,67.124,8.727c7.986,1.084,15.939,2.533,23.811,4.258
		c2.064,0.453,4.581,2.146,5.498,3.971C-359.815,410.457-355.437,418.129-354.879,428.549z"/>
	<path fill-rule="evenodd" clip-rule="evenodd" fill="#FFFFFF" d="M-682.64,419.666c17.09,1.031,34.17,2.248,51.273,2.992
		c5.666,0.246,11.381-0.998,17.081-1.08c10.573-0.15,12.71,1.492,15.85,11.584c3.5,11.25,7.01,22.498,10.236,33.83
		c2.136,7.5,1.208,9.4-5.502,13.002c-16.37,8.787-32.442,10.24-50.123,1.953c-21.938-10.283-38.772-25.205-50.641-46.059
		c-1.496-2.631-2.954-5.324-4.04-8.139c-2.472-6.416-1.001-8.648,5.811-8.992c3.361-0.172,6.737-0.031,10.106-0.031
		C-682.607,419.039-682.623,419.352-682.64,419.666z"/>
	<path fill-rule="evenodd" clip-rule="evenodd" fill="#FFFFFF" d="M-367.469,307.049c-1.278-2.571-2.826-5.048-3.762-7.738
		c-1.104-3.168-1.638-6.532-2.488-9.792c-2.842-10.895-6.194-13.018-17.291-11.81c-6.939,0.756-11.284,3.9-12.324,11.044
		c-0.178,1.215-0.725,2.377-1.588,5.097c-7.354-9.434-9.834-19.554-13.017-29.282c-0.333-1.016,1.233-3.049,2.4-4.05
		c1.216-1.043,2.989-1.471,4.562-2.052c4.237-1.569,8.734-3.337,8.029-8.829c-0.619-4.819-5.096-5.782-9.121-6.654
		c-3.618-0.785-7.59-0.807-10.792-2.401c-3.054-1.52-6.214-4.2-7.646-7.179c-1.222-2.538-1.074-6.889,0.411-9.175
		c1.021-1.574,5.539-1.809,8.195-1.243c20.737,4.419,41.414,9.126,62.085,13.851c9.824,2.245,10.804,4.706,8.425,14.041
		c-3.569,14.008-6.381,28.209-9.59,42.31c-1.023,4.497-2.284,8.938-3.437,13.406C-365.435,306.746-366.452,306.897-367.469,307.049z
		"/>
	<path fill-rule="evenodd" clip-rule="evenodd" fill="#FFFFFF" d="M-193.021,363.064c-25.524,26.391-42.023,59.781-68.397,87.559
		c-1.819-3.645-3.43-5.773-3.979-8.148c-3.962-17.164-4.798-34.656-5.177-52.195c-0.111-5.174,2.247-8.383,6.999-9.783
		c4.843-1.426,9.86-2.271,14.666-3.799c14.765-4.691,29.448-9.637,44.203-14.361c3.311-1.061,6.78-1.625,10.176-2.418
		C-194.025,360.967-193.522,362.016-193.021,363.064z"/>
	<path fill-rule="evenodd" clip-rule="evenodd" fill="#FFFFFF" d="M-288.442,219.912c0,1.012,0.099,2.035-0.017,3.034
		c-0.578,5.027-0.602,11.534-6.313,12.548c-5.194,0.922-11.135-0.858-16.416-2.506c-3.078-0.96-4.136-4.769-2.311-7.748
		c3.496-5.708,7.065-11.5,11.52-16.428c1.777-1.967,6.326-2.91,8.968-2.13c2.003,0.591,3.329,4.525,4.294,7.209
		c0.643,1.791,0.121,3.999,0.121,6.021C-288.544,219.912-288.494,219.912-288.442,219.912z"/>
	<path fill-rule="evenodd" clip-rule="evenodd" fill="#FFFFFF" d="M-458.109,235.255c-2.531-0.709-7.128-1.708-11.505-3.303
		c-4.522-1.647-5.695-5.443-4.81-9.894c0.902-4.537,4.74-7.842,9.117-8.085c8.313-0.464,16.557,7.557,16.316,15.875
		C-449.096,233.507-451.216,235.137-458.109,235.255z"/>
</g>
</svg>
